<svg width="55" height="54" viewBox="0 0 55 54" fill="none" xmlns="http://www.w3.org/2000/svg">
<path d="M48.125 0H6.875C3.08344 0 0 3.02737 0 6.75V47.25C0 50.9726 3.08344 54 6.875 54H48.125C51.9166 54 55 50.9726 55 47.25V6.75C55 3.02737 51.9166 0 48.125 0Z" fill="#1976D2"/>
<path d="M46.4062 27H37.8125V20.25C37.8125 18.387 39.3525 18.5625 41.25 18.5625H44.6875V10.125H37.8125C32.1166 10.125 27.5 14.6576 27.5 20.25V27H20.625V35.4375H27.5V54H37.8125V35.4375H42.9688L46.4062 27Z" fill="#FAFAFA"/>
</svg>
