<svg width="54" height="54" viewBox="0 0 54 54" fill="none" xmlns="http://www.w3.org/2000/svg">
<path d="M27.0068 0H26.9932C12.1061 0 0 12.1095 0 27C0 32.9062 1.9035 38.3805 5.14012 42.8254L1.77525 52.8559L12.1534 49.5382C16.4228 52.3665 21.5156 54 27.0068 54C41.8939 54 54 41.8871 54 27C54 12.1129 41.8939 0 27.0068 0Z" fill="#4CAF50"/>
<path d="M42.7174 38.1274C42.066 39.9667 39.4807 41.4922 37.4186 41.9377C36.0079 42.2381 34.1651 42.4778 27.9619 39.906C20.0272 36.6188 14.9175 28.5559 14.5192 28.0327C14.1379 27.5096 11.313 23.7634 11.313 19.8889C11.313 16.0144 13.2806 14.1277 14.0737 13.3177C14.7251 12.6529 15.8017 12.3491 16.8345 12.3491C17.1686 12.3491 17.469 12.366 17.739 12.3795C18.5321 12.4132 18.9304 12.4605 19.4535 13.7126C20.1049 15.282 21.6911 19.1565 21.8801 19.5547C22.0725 19.953 22.2649 20.493 21.9949 21.0161C21.7417 21.5561 21.519 21.7957 21.1207 22.2547C20.7225 22.7137 20.3445 23.0647 19.9462 23.5575C19.5817 23.9861 19.17 24.4451 19.629 25.2382C20.088 26.0145 21.6742 28.6031 24.0097 30.6821C27.0236 33.3652 29.4671 34.2225 30.3412 34.587C30.9926 34.857 31.7689 34.7929 32.2447 34.2866C32.8489 33.6353 33.5947 32.5552 34.3541 31.4921C34.8941 30.7294 35.5759 30.6349 36.2914 30.9049C37.0204 31.158 40.878 33.0649 41.6711 33.4597C42.4642 33.858 42.9874 34.047 43.1797 34.3811C43.3687 34.7152 43.3687 36.2846 42.7174 38.1274Z" fill="#FAFAFA"/>
</svg>
