<?xml version="1.0" encoding="utf-8"?><svg viewBox="0 0 172 148" xmlns="http://www.w3.org/2000/svg" xmlns:xlink="http://www.w3.org/1999/xlink"><style>:root>svg{display:none}:root>svg:target{display:block}</style><svg fill="none" viewBox="0 0 150 49" id="DHL" xmlns="http://www.w3.org/2000/svg"><path d="M0 0h150v49H0V0z" fill="#FC0"/><path d="M3 32.6h17.4l-1 1.4H3v-1.4zM146.5 34h-21.3l1.1-1.4h20.3V34h-.1zM3 30h19.4l-1.1 1.4H3V30zM3 27.4h21.4l-1.1 1.4H3v-1.4zM146.5 31.4h-19.3l1.1-1.4h18.3v1.4h-.1zM130.2 27.4h16.3v1.4h-17.4l1.1-1.4zM21.8 34L31 21.7h11.4c1.3 0 1.3.5.6 1.3-.6.8-1.7 2.3-2.3 3.1-.3.5-.9 1.2 1 1.2H57c-1.2 1.8-5.4 6.8-12.8 6.8-6-.1-22.4-.1-22.4-.1zM74.5 27.4l-5 6.7H56.4l5-6.7h13.1zM93.6 27.4l-5 6.7H75.4l5-6.7h13.2zM97.9 27.4s-1 1.3-1.4 1.9c-1.7 2.2-.2 4.8 5.2 4.8h21.2l5-6.7h-30z" fill="#D40511"/><path d="M28.3 14.1l-4.6 6.1h25c1.3 0 1.3.5.6 1.3-.6.8-1.7 2.3-2.3 3.1-.3.4-.9 1.2 1 1.2h10.2s1.7-2.2 3-4.1c1.9-2.5.2-7.7-6.5-7.7-6 .1-26.4.1-26.4.1zM94.7 25.8H62.5l8.8-11.7h13.2l-5 6.7h5.9l5-6.7h13.2l-8.9 11.7zM121.8 14.1L113 25.8H99l8.8-11.7h14z" fill="#D40511"/></svg><svg fill="none" viewBox="0 0 24 44" id="Left-arrow" xmlns="http://www.w3.org/2000/svg"><path d="M23.296 43.462a1.831 1.831 0 000-2.592L4.426 22l18.87-18.87a1.831 1.831 0 000-2.592 1.831 1.831 0 00-2.593 0L.537 20.704a1.828 1.828 0 000 2.592l20.166 20.166a1.831 1.831 0 002.593 0z" fill="#C4C4C4"/></svg><svg fill="none" viewBox="0 0 24 44" id="RIGHT-arrow" xmlns="http://www.w3.org/2000/svg"><path d="M.621 43.462a1.831 1.831 0 010-2.592L19.491 22 .621 3.13a1.831 1.831 0 010-2.592 1.831 1.831 0 012.592 0L23.38 20.704a1.828 1.828 0 010 2.592L3.213 43.462a1.831 1.831 0 01-2.592 0z" fill="#628DD9"/></svg><svg fill="none" viewBox="0 0 57 43" id="Telegram" xmlns="http://www.w3.org/2000/svg"><path d="M56.432.028L.888 20.235c-1.03.377-1.206 1.768-.305 2.381l8.303 5.707L46.571 8.316l-31.9 23.98v9.714a.832.832 0 001.289.696l7.026-4.693 6.921 4.752a1.346 1.346 0 001.909-.413l25.12-41.7c.21-.341-.13-.766-.504-.624z" fill="#628DD9"/></svg><svg fill="none" viewBox="0 0 164 142" id="advantage-1" xmlns="http://www.w3.org/2000/svg"><circle cx="36" cy="36" r="35.5" fill="#91C449" fill-opacity=".25" stroke="#E3F0D1"/><path d="M122.436 87.556L95.219 69.797V26.625a2.219 2.219 0 10-4.438 0v45.578l29.228 19.08a2.216 2.216 0 002.467-.026 2.23 2.23 0 00.919-2.29 2.214 2.214 0 00-.959-1.402v-.009z" fill="#628DD9"/><path d="M93 0a71 71 0 100 142A71 71 0 0093 0zm48.575 116.438l-4.216-4.216a2.22 2.22 0 10-3.128 3.153l4.216 4.216a66.305 66.305 0 01-43.228 17.916v-6.601a2.22 2.22 0 00-4.438 0v6.601a66.295 66.295 0 01-43.219-17.93l4.216-4.215a2.222 2.222 0 00-3.153-3.131l-4.216 4.216a66.3 66.3 0 01-17.916-43.228h6.6a2.219 2.219 0 100-4.438h-6.6a66.298 66.298 0 0117.93-43.219l4.215 4.216a2.222 2.222 0 103.131-3.153l-4.216-4.216A66.298 66.298 0 0190.781 4.493v6.6a2.219 2.219 0 104.438 0v-6.6a66.3 66.3 0 0143.219 17.93l-4.216 4.215a2.222 2.222 0 003.153 3.131l4.216-4.216a66.3 66.3 0 0117.916 43.228h-6.601a2.22 2.22 0 000 4.438h6.601a66.301 66.301 0 01-17.932 43.219z" fill="#628DD9"/></svg><svg fill="none" viewBox="0 0 159 142" id="advantage-2" xmlns="http://www.w3.org/2000/svg"><circle cx="36" cy="82" r="35.5" fill="#91C449" fill-opacity=".25" stroke="#E3F0D1"/><path d="M158.426 11.14L147.857.57a1.956 1.956 0 00-1.373-.57 1.938 1.938 0 00-1.373.57L89.452 56.23l-.11-.11a6.376 6.376 0 00-9.022 0l-2.972 2.963a12.811 12.811 0 00-16.596-1.337l-3.279 2.257-8.437 5.806L17.84 87.272a1.941 1.941 0 00-.272 2.972l11.78 11.78a8.123 8.123 0 0010.088 1.079l1.011-.651-.822 3.04a9.62 9.62 0 002.48 9.289l26.648 26.65a1.938 1.938 0 001.374.569c.057 0 .117 0 .177-.008a1.938 1.938 0 001.421-.833l20.33-29.556 6.937-10.08v-.006l2.229-3.24a12.82 12.82 0 00-1.308-16.627l2.967-2.967a6.372 6.372 0 001.869-4.51 6.372 6.372 0 00-1.869-4.51l-.111-.112 55.66-55.66a1.941 1.941 0 00-.004-2.752zm-68.244 96.343L51.516 68.816l6.827-4.694 36.533 36.534-4.694 6.827zM69.85 137.036l-8.442-8.442 8.459-11.222a1.945 1.945 0 00-3.106-2.339l-8.13 10.787-4.83-4.829 5.61-7.352a1.943 1.943 0 00-3.088-2.356l-5.292 6.936-6.186-6.185a5.74 5.74 0 01-1.47-5.534l2.138-7.91a1.943 1.943 0 00-.728-2.074 1.965 1.965 0 00-2.198-.066l-5.253 3.394a4.215 4.215 0 01-5.241-.56l-10.129-10.13 26.3-18.1 39.68 39.682-18.094 26.3zm28.203-40.994l-.935 1.361L61.596 61.88l1.397-.962a8.958 8.958 0 0111.632.929L97.15 84.374a8.97 8.97 0 01.902 11.668zm2.082-20.106l-2.965 2.966-17.074-17.074 2.966-2.966a2.5 2.5 0 013.53 0l13.543 13.544a2.5 2.5 0 010 3.53zm-.111-9.135l-7.825-7.826 54.285-54.288 7.825 7.825L100.024 66.8z" fill="#628DD9"/></svg><svg fill="none" viewBox="0 0 172 148" id="advantage-3" xmlns="http://www.w3.org/2000/svg"><circle cx="136" cy="36" r="35.5" fill="#91C449" fill-opacity=".25" stroke="#E3F0D1"/><path d="M59.352 76.76A7.522 7.522 0 0052.226 80l-6.61 9.696V59.148a7.338 7.338 0 00-6.462-7.35 7.21 7.21 0 00-4.038.796 7.304 7.304 0 00-6.393-6.35 7.159 7.159 0 00-7.854 7.126v3.251a7.22 7.22 0 00-3.97-.76 7.332 7.332 0 00-6.47 7.349v.07a7.21 7.21 0 00-3.971-.761A7.333 7.333 0 000 69.868v76.19A1.942 1.942 0 001.942 148h46.607a1.942 1.942 0 001.941-1.942v-34.544l14.918-28.337a1.942 1.942 0 00.1-1.59 7.523 7.523 0 00-6.156-4.828zM46.83 110.128c-.146.279-.222.59-.222.905v33.082H3.883V69.868a3.426 3.426 0 012.947-3.483 3.273 3.273 0 013.598 3.258v19.84a1.942 1.942 0 103.883 0V63.21a3.425 3.425 0 012.947-3.483 3.274 3.274 0 013.602 3.259v24.003a1.942 1.942 0 103.883 0V53.368a3.277 3.277 0 013.602-3.26 3.424 3.424 0 012.946 3.484v28.192a1.942 1.942 0 103.883 0V58.926a3.276 3.276 0 013.603-3.26 3.425 3.425 0 012.947 3.484v36.837a1.942 1.942 0 003.55 1.094l10.155-14.898a3.662 3.662 0 016.086.053L46.83 110.13zM135.54 40.307a7.21 7.21 0 00-3.972.763V41a7.338 7.338 0 00-6.461-7.35 7.219 7.219 0 00-3.971.762V31.16a7.152 7.152 0 00-2.349-5.303 7.168 7.168 0 00-5.504-1.822 7.298 7.298 0 00-6.393 6.35 7.236 7.236 0 00-4.039-.798 7.335 7.335 0 00-6.46 7.35v30.55l-6.61-9.698a7.544 7.544 0 00-13.288 1.59 1.943 1.943 0 00.098 1.588L91.51 89.305v34.543a1.939 1.939 0 001.941 1.942h46.607a1.932 1.932 0 001.373-.568 1.932 1.932 0 00.569-1.374v-76.19a7.338 7.338 0 00-6.46-7.35zm2.577 81.599H95.393V88.824c0-.315-.076-.626-.222-.905L80.486 60.035a3.661 3.661 0 016.085-.054L96.727 74.88a1.943 1.943 0 003.55-1.096V36.945a3.426 3.426 0 012.946-3.483 3.275 3.275 0 013.603 3.26v22.857a1.942 1.942 0 003.883 0V31.383a3.423 3.423 0 012.945-3.482 3.271 3.271 0 013.602 3.258V64.78a1.943 1.943 0 003.314 1.373c.365-.364.569-.858.569-1.373V40.776a3.271 3.271 0 011.079-2.43 3.27 3.27 0 012.524-.83A3.42 3.42 0 01127.689 41v26.273a1.942 1.942 0 103.883 0V47.433c0-.457.096-.91.281-1.329a3.287 3.287 0 011.972-1.782 3.27 3.27 0 011.35-.148 3.421 3.421 0 012.945 3.484l-.003 74.248z" fill="#628DD9"/></svg><svg fill="none" viewBox="0 0 142 142" id="advantage-4" xmlns="http://www.w3.org/2000/svg"><circle cx="46" cy="57" r="35.5" fill="#91C449" fill-opacity=".25" stroke="#E3F0D1"/><path d="M35.65 67.249A15.295 15.295 0 0020.37 82.525v4.346a2.097 2.097 0 004.194 0v-4.346A11.095 11.095 0 0135.65 71.442a2.097 2.097 0 100-4.193z" fill="#628DD9"/><path d="M129.118 127.011h-8.203L104.298 26.745A25.25 25.25 0 0091.26 8.584L80.5 2.906a25.062 25.062 0 00-36.774 22.163v19.267h-1.498a2.097 2.097 0 00-2.096 2.096v10.03H35.65a26.094 26.094 0 00-26.063 26.06v6.39A11.697 11.697 0 000 100.399v13.246a11.696 11.696 0 009.586 11.484v5.118a2.092 2.092 0 001.295 1.937c.254.105.527.16.803.159h26.155a16.169 16.169 0 0024.866 6.141 16.161 16.161 0 004.324-20.012 16.172 16.172 0 00-4.729-5.596V58.558a2.097 2.097 0 00-2.097-2.097h-1.498V46.432a2.097 2.097 0 00-2.097-2.096H55.11V25.069a13.69 13.69 0 0120.073-12.102l10.762 5.691a13.729 13.729 0 017.104 9.921l16.328 98.432h-7.919a12.896 12.896 0 00-12.882 12.88 2.099 2.099 0 002.097 2.097h49.23a2.098 2.098 0 002.097-2.097 12.896 12.896 0 00-12.882-12.88zM4.194 113.644v-13.246a7.506 7.506 0 015.392-7.19v27.632a7.504 7.504 0 01-5.392-7.196zm60.418 12.168a11.98 11.98 0 01-14.321 11.752 11.986 11.986 0 01-9.415-9.414 11.98 11.98 0 0120.222-10.806 11.994 11.994 0 013.514 8.468zm-11.983-16.175a16.055 16.055 0 00-15.99 18.512H13.78V82.522A21.892 21.892 0 0135.65 60.655h22.456v49.955a16.044 16.044 0 00-5.477-.974v.001zm-8.303-53.176V48.53H54.51v7.932H44.326zm52.867-28.56a17.933 17.933 0 00-9.287-12.954l-10.762-5.69a17.88 17.88 0 00-26.228 15.812v19.267h-2.995V25.069A20.867 20.867 0 0168.203 4.207a20.872 20.872 0 0110.337 2.41l10.758 5.678a21.027 21.027 0 0110.86 15.132l16.504 99.586h-3.034L97.193 27.901zm-4.167 109.893a8.702 8.702 0 018.432-6.59h27.66a8.701 8.701 0 018.431 6.59H93.026z" fill="#628DD9"/></svg><svg fill="none" viewBox="0 0 55 54" id="facebook" xmlns="http://www.w3.org/2000/svg"><path d="M48.125 0H6.875C3.083 0 0 3.027 0 6.75v40.5C0 50.973 3.083 54 6.875 54h41.25C51.917 54 55 50.973 55 47.25V6.75C55 3.027 51.917 0 48.125 0z" fill="#1976D2"/><path d="M46.406 27h-8.593v-6.75c0-1.863 1.54-1.688 3.437-1.688h3.438v-8.437h-6.876c-5.695 0-10.312 4.533-10.312 10.125V27h-6.875v8.438H27.5V54h10.313V35.437h5.156L46.406 27z" fill="#FAFAFA"/></svg><svg fill="none" viewBox="0 0 26 26" id="flag-estonia" xmlns="http://www.w3.org/2000/svg"><path d="M13 26c7.18 0 13-5.82 13-13S20.18 0 13 0 0 5.82 0 13s5.82 13 13 13z" fill="#fff"/><path d="M25.257 8.666h-8.01c.348 2.777.35 5.836.007 8.617h8.02C25.742 15.942 26 14.5 26 13c0-1.52-.263-2.979-.743-4.334z" fill="#0B0B0B"/><path d="M17.247 8.666h8.01l-.004-.012C23.589 3.963 19.309.512 14.168.054c1.99 1.09 2.57 4.546 3.08 8.612z" fill="#338BC1"/><path d="M14.168 25.946c5.151-.459 9.437-3.922 11.094-8.626l.012-.037h-8.02c-.505 4.087-1.088 7.568-3.086 8.663z" fill="#F7F7F7"/><path d="M0 13c0 1.501.258 2.941.726 4.283h17.197c.344-2.78.341-5.84-.006-8.617H.743A12.973 12.973 0 000 13z" fill="#151515"/><path d="M.747 8.654a.319.319 0 00-.004.012h17.174c-.51-4.066-1.76-7.522-3.75-8.613A13.228 13.228 0 0013 0C7.345 0 2.535 3.612.747 8.654z" fill="#3D91CF"/><path d="M17.923 17.283H.726l.012.037C2.52 22.375 7.335 26 13 26c.393 0 .783-.02 1.167-.054 1.999-1.095 3.251-4.576 3.756-8.663z" fill="#fff"/></svg><svg fill="none" viewBox="0 0 25 26" id="flag-latvia" xmlns="http://www.w3.org/2000/svg"><path d="M12.5 26C19.404 26 25 20.18 25 13S19.404 0 12.5 0C5.597 0 0 5.82 0 13s5.597 13 12.5 13z" fill="#fff"/><path d="M24.286 8.666h-7.702c.334 2.777.336 5.836.006 8.617h7.712C24.752 15.942 25 14.5 25 13c0-1.52-.253-2.979-.714-4.334z" fill="#F6F6F6"/><path d="M16.584 8.666h7.701a.215.215 0 00-.003-.012c-1.6-4.691-5.715-8.142-10.66-8.6 1.914 1.09 2.473 4.546 2.962 8.612zM13.623 25.946c4.953-.459 9.074-3.922 10.667-8.626l.012-.037H16.59c-.485 4.087-1.046 7.568-2.967 8.663z" fill="#99001B"/><path d="M0 13c0 1.501.248 2.941.698 4.283h16.536c.33-2.78.328-5.84-.007-8.617H.714A13.44 13.44 0 000 13z" fill="#fff"/><path d="M.718 8.654a.331.331 0 00-.004.012h16.513C16.738 4.6 15.536 1.144 13.623.053 13.253.02 12.878 0 12.5 0 7.062 0 2.438 3.612.718 8.654zM17.234 17.283H.698l.012.037C2.423 22.375 7.053 26 12.5 26c.378 0 .752-.02 1.123-.054 1.921-1.095 3.126-4.576 3.61-8.663z" fill="#A2001D"/></svg><svg fill="none" viewBox="0 0 26 26" id="flag-russia" xmlns="http://www.w3.org/2000/svg"><path d="M13 26c7.18 0 13-5.82 13-13S20.18 0 13 0 0 5.82 0 13s5.82 13 13 13z" fill="#fff"/><path d="M25.257 8.666h-8.01c.348 2.777.35 5.836.007 8.617h8.02A12.97 12.97 0 0026 13c0-1.52-.264-2.979-.743-4.334z" fill="#2B479D"/><path d="M17.247 8.666h8.01a.095.095 0 00-.004-.012C23.589 3.963 19.309.512 14.167.054c1.99 1.09 2.572 4.546 3.08 8.612z" fill="#F6F6F6"/><path d="M14.168 25.946c5.15-.459 9.437-3.922 11.094-8.626l.012-.037h-8.02c-.505 4.087-1.088 7.568-3.086 8.663z" fill="#E63026"/><path d="M0 13c0 1.501.258 2.941.726 4.283h17.197c.344-2.78.341-5.84-.006-8.618H.743A12.973 12.973 0 000 13z" fill="#3757A6"/><path d="M.747 8.654a.182.182 0 01-.004.012h17.174c-.51-4.066-1.76-7.522-3.75-8.613A13.226 13.226 0 0013 0C7.345 0 2.535 3.612.747 8.654z" fill="#fff"/><path d="M17.923 17.283H.726l.012.037C2.52 22.375 7.335 26 13 26c.393 0 .783-.02 1.167-.054 1.999-1.095 3.251-4.576 3.756-8.663z" fill="#E73B36"/></svg><svg fill="none" viewBox="0 0 54 54" id="instagram" xmlns="http://www.w3.org/2000/svg"><path d="M37.125 0h-20.25C7.557 0 0 7.557 0 16.875v20.25C0 46.443 7.557 54 16.875 54h20.25C46.443 54 54 46.443 54 37.125v-20.25C54 7.557 46.443 0 37.125 0zm11.813 37.125c0 6.514-5.3 11.813-11.813 11.813h-20.25c-6.514 0-11.813-5.3-11.813-11.813v-20.25c0-6.514 5.3-11.813 11.813-11.813h20.25c6.514 0 11.813 5.3 11.813 11.813v20.25z" fill="url(#mpaint0_linear)"/><path d="M27 13.5c-7.455 0-13.5 6.045-13.5 13.5S19.545 40.5 27 40.5 40.5 34.455 40.5 27 34.455 13.5 27 13.5zm0 21.938c-4.65 0-8.438-3.787-8.438-8.438 0-4.654 3.787-8.438 8.438-8.438 4.65 0 8.438 3.784 8.438 8.438 0 4.65-3.787 8.438-8.438 8.438z" fill="url(#mpaint1_linear)"/><path d="M41.513 14.286a1.799 1.799 0 100-3.598 1.799 1.799 0 000 3.598z" fill="url(#mpaint2_linear)"/><defs><linearGradient id="mpaint0_linear" x1="4.943" y1="49.057" x2="49.057" y2="4.943" gradientUnits="userSpaceOnUse"><stop stop-color="#FFC107"/><stop offset=".507" stop-color="#F44336"/><stop offset=".99" stop-color="#9C27B0"/></linearGradient><linearGradient id="mpaint1_linear" x1="17.454" y1="36.546" x2="36.546" y2="17.454" gradientUnits="userSpaceOnUse"><stop stop-color="#FFC107"/><stop offset=".507" stop-color="#F44336"/><stop offset=".99" stop-color="#9C27B0"/></linearGradient><linearGradient id="mpaint2_linear" x1="40.241" y1="13.76" x2="42.784" y2="11.216" gradientUnits="userSpaceOnUse"><stop stop-color="#FFC107"/><stop offset=".507" stop-color="#F44336"/><stop offset=".99" stop-color="#9C27B0"/></linearGradient></defs></svg><svg fill="none" viewBox="0 0 54 54" id="whatsapp" xmlns="http://www.w3.org/2000/svg"><path d="M27.007 0h-.014C12.106 0 0 12.11 0 27a26.8 26.8 0 005.14 15.825l-3.365 10.03 10.378-3.317A26.766 26.766 0 0027.007 54C41.894 54 54 41.887 54 27S41.894 0 27.007 0z" fill="#4CAF50"/><path d="M42.717 38.127c-.651 1.84-3.236 3.365-5.298 3.81-1.411.301-3.254.54-9.457-2.031-7.935-3.287-13.044-11.35-13.443-11.873-.381-.523-3.206-4.27-3.206-8.144 0-3.875 1.968-5.761 2.76-6.571.652-.665 1.729-.969 2.761-.969.335 0 .635.017.905.03.793.034 1.191.082 1.714 1.334.652 1.569 2.238 5.444 2.427 5.842.193.398.385.938.115 1.461-.253.54-.476.78-.874 1.239-.398.459-.776.81-1.175 1.303-.364.428-.776.887-.317 1.68.459.777 2.045 3.365 4.38 5.444 3.015 2.683 5.458 3.54 6.332 3.905.652.27 1.428.206 1.904-.3.604-.652 1.35-1.732 2.11-2.795.54-.763 1.22-.857 1.936-.587.73.253 4.587 2.16 5.38 2.555.793.398 1.316.587 1.509.921.189.334.189 1.904-.463 3.746z" fill="#FAFAFA"/></svg></svg>