<svg width="26" height="26" viewBox="0 0 26 26" fill="none" xmlns="http://www.w3.org/2000/svg">
<path d="M13.0001 25.9996C20.1795 25.9996 25.9996 20.1796 25.9996 13.0002C25.9996 5.82078 20.1795 0.000732422 13.0001 0.000732422C5.82072 0.000732422 0.000671387 5.82078 0.000671387 13.0002C0.000671387 20.1796 5.82072 25.9996 13.0001 25.9996Z" fill="white"/>
<path d="M25.257 8.66559H17.2473C17.595 11.4426 17.5973 14.5025 17.2539 17.2829H25.2741C25.7421 15.9416 25.9997 14.501 25.9997 13.0001C25.9999 11.4795 25.7366 10.0213 25.257 8.66559Z" fill="#0B0B0B"/>
<path d="M17.2473 8.6656H25.2569C25.2554 8.66148 25.2542 8.65802 25.2527 8.65429C23.5891 3.96301 19.3095 0.511506 14.1677 0.0533447C16.1573 1.14411 16.7384 4.59994 17.2473 8.6656Z" fill="#338BC1"/>
<path d="M14.1677 25.946C19.319 25.487 23.6047 22.0236 25.262 17.3198C25.2663 17.3073 25.27 17.295 25.2745 17.2829H17.254C16.7493 21.3705 16.1658 24.8508 14.1677 25.946Z" fill="#F7F7F7"/>
<path d="M6.10352e-05 13.0001C6.10352e-05 14.5012 0.257657 15.9415 0.725644 17.2829H17.9232C18.2666 14.5022 18.2643 11.4425 17.9166 8.66553H0.742879C0.263365 10.0213 6.10352e-05 11.4795 6.10352e-05 13.0001Z" fill="#151515"/>
<path d="M0.746976 8.6543C0.745548 8.65798 0.744286 8.66149 0.742859 8.66561H17.9166C17.4078 4.59995 16.1573 1.14417 14.1675 0.0534074C13.7826 0.0193211 13.3934 0 12.9997 0C7.34457 0 2.53522 3.61183 0.746976 8.6543Z" fill="#3D91CF"/>
<path d="M17.9232 17.2829H0.725647C0.729983 17.295 0.73388 17.3073 0.738162 17.3198C2.51943 22.3753 7.33531 25.9998 12.9997 25.9998C13.3935 25.9998 13.7826 25.9805 14.1674 25.946C16.1658 24.8508 17.4184 21.3705 17.9232 17.2829Z" fill="white"/>
</svg>
