<svg width="25" height="26" viewBox="0 0 25 26" fill="none" xmlns="http://www.w3.org/2000/svg">
<path d="M12.5002 25.9996C19.4035 25.9996 24.9997 20.1796 24.9997 13.0002C24.9997 5.82078 19.4035 0.000732422 12.5002 0.000732422C5.59694 0.000732422 0.000732422 5.82078 0.000732422 13.0002C0.000732422 20.1796 5.59694 25.9996 12.5002 25.9996Z" fill="white"/>
<path d="M24.2856 8.66559H16.5839C16.9183 11.4426 16.9204 14.5025 16.5903 17.2829H24.302C24.752 15.9416 24.9997 14.501 24.9997 13.0001C24.9999 11.4795 24.7467 10.0213 24.2856 8.66559Z" fill="#F6F6F6"/>
<path d="M16.5839 8.6656H24.2854C24.2841 8.66148 24.2829 8.65802 24.2815 8.65429C22.6818 3.96301 18.5669 0.511506 13.6228 0.0533447C15.5359 1.14411 16.0946 4.59994 16.5839 8.6656Z" fill="#99001B"/>
<path d="M13.6228 25.946C18.5759 25.487 22.6968 22.0236 24.2903 17.3198C24.2945 17.3073 24.298 17.295 24.3024 17.2829H16.5904C16.1051 21.3705 15.544 24.8508 13.6228 25.946Z" fill="#99001B"/>
<path d="M6.10352e-05 13.0001C6.10352e-05 14.5012 0.247749 15.9415 0.697737 17.2829H17.2338C17.564 14.5022 17.5619 11.4425 17.2275 8.66553H0.714309C0.253238 10.0213 6.10352e-05 11.4795 6.10352e-05 13.0001Z" fill="white"/>
<path d="M0.718192 8.6543C0.71682 8.65798 0.715606 8.66149 0.714233 8.66561H17.2274C16.7382 4.59995 15.5358 1.14417 13.6225 0.0534074C13.2524 0.0193211 12.8782 0 12.4997 0C7.06203 0 2.43765 3.61183 0.718192 8.6543Z" fill="#A2001D"/>
<path d="M17.2339 17.2829H0.697754C0.701923 17.295 0.705671 17.3073 0.709787 17.3198C2.42255 22.3753 7.05321 25.9998 12.4998 25.9998C12.8783 25.9998 13.2525 25.9805 13.6226 25.946C15.544 24.8508 16.7485 21.3705 17.2339 17.2829Z" fill="#A2001D"/>
</svg>
