<svg width="26" height="26" viewBox="0 0 26 26" fill="none" xmlns="http://www.w3.org/2000/svg">
<path d="M13.0001 25.9996C20.1795 25.9996 25.9996 20.1795 25.9996 13.0001C25.9996 5.82072 20.1795 0.000671387 13.0001 0.000671387C5.82072 0.000671387 0.000671387 5.82072 0.000671387 13.0001C0.000671387 20.1795 5.82072 25.9996 13.0001 25.9996Z" fill="white"/>
<path d="M25.257 8.66553H17.2473C17.5952 11.4425 17.5972 14.5024 17.254 17.2829H25.2741C25.7423 15.9415 25.9996 14.501 25.9996 13.0001C25.9999 11.4795 25.7365 10.0213 25.257 8.66553Z" fill="#2B479D"/>
<path d="M17.2473 8.66554H25.2569C25.2557 8.66143 25.2544 8.65797 25.2528 8.65424C23.5891 3.96301 19.3093 0.511506 14.1673 0.0533447C16.1574 1.14411 16.7386 4.59994 17.2473 8.66554Z" fill="#F6F6F6"/>
<path d="M14.1677 25.946C19.3189 25.487 23.6046 22.0236 25.2619 17.3198C25.2662 17.3073 25.2699 17.295 25.2744 17.2829H17.2542C16.7494 21.3705 16.1657 24.8507 14.1677 25.946Z" fill="#E63026"/>
<path d="M0 13C0 14.5011 0.257815 15.9414 0.725583 17.2828H17.9231C18.2667 14.5021 18.2643 11.4425 17.9168 8.66547H0.742873C0.263359 10.0213 0 11.4795 0 13Z" fill="#3757A6"/>
<path d="M0.746915 8.6543C0.745707 8.65798 0.744445 8.6615 0.742798 8.66561H17.9167C17.4077 4.59996 16.1572 1.14418 14.1674 0.0534135C13.7825 0.0193272 13.3934 6.10358e-05 12.9997 6.10358e-05C7.34451 6.1464e-06 2.53537 3.61178 0.746915 8.6543Z" fill="white"/>
<path d="M17.9231 17.2828H0.725586C0.729922 17.295 0.733984 17.3073 0.738101 17.3198C2.51943 22.3752 7.33548 25.9998 12.9997 25.9998C13.3935 25.9998 13.7826 25.9804 14.1674 25.946C16.1657 24.8507 17.4184 21.3705 17.9231 17.2828Z" fill="#E73B36"/>
</svg>
