<svg width="150" height="49" viewBox="0 0 150 49" fill="none" xmlns="http://www.w3.org/2000/svg">
<path d="M0 0H150V49H0V0Z" fill="#FFCC00"/>
<path d="M3 32.6001H20.4L19.4 34.0001H3V32.6001Z" fill="#D40511"/>
<path d="M146.5 34.0001H125.2L126.3 32.6001H146.6V34.0001H146.5Z" fill="#D40511"/>
<path d="M3 30H22.4L21.3 31.4H3V30Z" fill="#D40511"/>
<path d="M3 27.3999H24.4L23.3 28.7999H3V27.3999Z" fill="#D40511"/>
<path d="M146.5 31.4H127.2L128.3 30H146.6V31.4H146.5Z" fill="#D40511"/>
<path d="M130.2 27.3999H146.5V28.7999H129.1L130.2 27.3999Z" fill="#D40511"/>
<path d="M21.8 34.0002L31 21.7002C31 21.7002 41.2 21.7002 42.4 21.7002C43.7 21.7002 43.7 22.2002 43 23.0002C42.4 23.8002 41.3 25.3002 40.7 26.1002C40.4 26.6002 39.8 27.3002 41.7 27.3002C43.8 27.3002 57 27.3002 57 27.3002C55.8 29.1002 51.6 34.1002 44.2 34.1002C38.2 34.0002 21.8 34.0002 21.8 34.0002Z" fill="#D40511"/>
<path d="M74.5 27.3999L69.5 34.0999H56.4L61.4 27.3999H74.5Z" fill="#D40511"/>
<path d="M93.6 27.3999L88.6 34.0999H75.4L80.4 27.3999H93.6Z" fill="#D40511"/>
<path d="M97.9 27.3999C97.9 27.3999 96.9 28.6999 96.5 29.2999C94.8 31.4999 96.3 34.0999 101.7 34.0999C107.9 34.0999 122.9 34.0999 122.9 34.0999L127.9 27.3999H97.9Z" fill="#D40511"/>
<path d="M28.3 14.1L23.7 20.2C23.7 20.2 47.4 20.2 48.7 20.2C50 20.2 50 20.7 49.3 21.5C48.7 22.3 47.6 23.8 47 24.6C46.7 25 46.1 25.8 48 25.8C50.1 25.8 58.2 25.8 58.2 25.8C58.2 25.8 59.9 23.6 61.2 21.7C63.1 19.2 61.4 14 54.7 14C48.7 14.1 28.3 14.1 28.3 14.1Z" fill="#D40511"/>
<path d="M94.7 25.8001H62.5L71.3 14.1001H84.5L79.5 20.8001H85.4L90.4 14.1001H103.6L94.7 25.8001Z" fill="#D40511"/>
<path d="M121.8 14.1001L113 25.8001H99L107.8 14.1001H121.8Z" fill="#D40511"/>
</svg>
