<svg width="172" height="148" viewBox="0 0 172 148" fill="none" xmlns="http://www.w3.org/2000/svg">
<circle cx="136" cy="36" r="35.5" fill="#91C449" fill-opacity="0.25" stroke="#E3F0D1"/>
<path d="M59.3516 76.7594C57.981 76.5936 56.5913 76.8082 55.3345 77.3797C54.0777 77.9512 53.0023 78.8575 52.2261 79.9995L45.6154 89.6964V59.1476C45.6315 57.3419 44.9813 55.5937 43.7892 54.2376C42.5972 52.8815 40.9469 52.0127 39.1544 51.7975C37.7596 51.6651 36.3564 51.9419 35.1163 52.5943C34.9145 50.973 34.1749 49.4662 33.0159 48.3149C31.8569 47.1637 30.3453 46.4345 28.723 46.2439C27.729 46.1469 26.7257 46.2589 25.7776 46.5728C24.8295 46.8868 23.9576 47.3957 23.2178 48.0668C22.4781 48.7379 21.8869 49.5565 21.4824 50.4698C21.0778 51.3831 20.8687 52.3709 20.8687 53.3699V56.621C19.6449 55.995 18.2678 55.7313 16.8993 55.861C15.105 56.0733 13.4523 56.9408 12.2581 58.2971C11.0639 59.6533 10.4123 61.4028 10.4284 63.2099V63.2798C9.20455 62.6526 7.82692 62.3885 6.45795 62.5186C4.66604 62.734 3.01649 63.6029 1.82502 64.9588C0.633549 66.3147 -0.0161393 68.0625 0.000304684 69.8676V146.058C0.000304684 146.573 0.204844 147.067 0.568927 147.431C0.93301 147.795 1.42681 148 1.9417 148H48.5486C49.0635 148 49.5573 147.795 49.9213 147.431C50.2854 147.067 50.49 146.573 50.49 146.058V111.514L65.4077 83.1774C65.5358 82.9345 65.6109 82.6672 65.6281 82.3931C65.6454 82.119 65.6042 81.8444 65.5075 81.5874C65.0229 80.2952 64.1923 79.1614 63.1066 78.3098C62.0208 77.4583 60.7218 76.9219 59.3516 76.7594ZM46.8302 110.129C46.6839 110.408 46.6078 110.719 46.6083 111.034V144.116H3.8831V69.8676C3.86073 69.0264 4.14873 68.2064 4.69217 67.564C5.23561 66.9216 5.99646 66.5017 6.82959 66.3845C7.28474 66.3389 7.7444 66.3893 8.17891 66.5323C8.61341 66.6754 9.0131 66.9079 9.35221 67.215C9.69131 67.5221 9.96228 67.8969 10.1476 68.3151C10.333 68.7334 10.4286 69.1859 10.4284 69.6435V89.4823C10.4284 89.9973 10.6329 90.4912 10.997 90.8553C11.3611 91.2195 11.8549 91.4241 12.3698 91.4241C12.8847 91.4241 13.3785 91.2195 13.7426 90.8553C14.1066 90.4912 14.3112 89.9973 14.3112 89.4823V63.2099C14.2888 62.3687 14.5768 61.5487 15.1203 60.9063C15.6637 60.2639 16.4245 59.844 17.2577 59.7268C17.713 59.6811 18.1729 59.7313 18.6076 59.8743C19.0424 60.0172 19.4424 60.2497 19.7818 60.5568C20.1212 60.8639 20.3925 61.2387 20.5781 61.657C20.7638 62.0754 20.8598 62.528 20.8598 62.9858V86.989C20.8598 87.504 21.0643 87.9979 21.4284 88.362C21.7925 88.7262 22.2863 88.9308 22.8012 88.9308C23.3161 88.9308 23.8099 88.7262 24.174 88.362C24.5381 87.9979 24.7426 87.504 24.7426 86.989V53.3677C24.7425 52.9098 24.8383 52.457 25.0239 52.0385C25.2095 51.62 25.4808 51.2451 25.8202 50.9379C26.1596 50.6307 26.5596 50.3981 26.9945 50.2551C27.4293 50.1121 27.8893 50.0618 28.3447 50.1076C29.178 50.2248 29.939 50.6448 30.4825 51.2875C31.026 51.9301 31.3139 52.7504 31.2912 53.5918V81.7838C31.2912 82.2988 31.4957 82.7927 31.8598 83.1568C32.2239 83.521 32.7177 83.7256 33.2326 83.7256C33.7475 83.7256 34.2413 83.521 34.6054 83.1568C34.9695 82.7927 35.174 82.2988 35.174 81.7838V58.9257C35.174 58.4678 35.27 58.015 35.4558 57.5965C35.6415 57.178 35.9129 56.8031 36.2524 56.4959C36.5919 56.1888 36.9919 55.9562 37.4268 55.8132C37.8617 55.6702 38.3217 55.6199 38.7772 55.6657C39.6105 55.7831 40.3713 56.2032 40.9147 56.8458C41.4582 57.4883 41.7461 58.3085 41.7237 59.1498V95.9868C41.7222 96.4031 41.8546 96.8089 42.1012 97.1443C42.3478 97.4797 42.6957 97.7269 43.0934 97.8495C43.4912 97.972 43.9178 97.9635 44.3104 97.8251C44.703 97.6868 45.0407 97.4259 45.2737 97.0809L55.4289 82.1832C55.7678 81.6858 56.2241 81.2797 56.7573 81.0007C57.2906 80.7217 57.8843 80.5785 58.4861 80.5838C59.0879 80.589 59.6791 80.7426 60.2074 81.0309C60.7356 81.3191 61.1847 81.7332 61.5149 82.2365L46.8302 110.129Z" fill="#628DD9"/>
<path d="M135.54 40.3075C134.17 40.1775 132.792 40.442 131.568 41.0698V40.9999C131.584 39.1943 130.934 37.4462 129.742 36.0901C128.55 34.734 126.9 33.8652 125.107 33.6498C123.738 33.5204 122.36 33.7849 121.136 34.4121V31.1587C121.136 30.1599 120.927 29.1722 120.522 28.259C120.118 27.3459 119.527 26.5275 118.787 25.8564C118.047 25.1854 117.175 24.6766 116.228 24.3627C115.28 24.0488 114.276 23.9368 113.283 24.0339C111.66 24.2243 110.149 24.9533 108.99 26.1044C107.831 27.2554 107.092 28.762 106.89 30.3831C105.649 29.732 104.246 29.4553 102.851 29.5864C101.059 29.8018 99.4089 30.6707 98.217 32.0268C97.0252 33.3829 96.3751 35.131 96.3913 36.9365V67.4864L89.7805 57.7884C89.0025 56.6483 87.9267 55.7436 86.6702 55.1726C85.4138 54.6017 84.0248 54.3864 82.6545 54.5503C81.2842 54.7142 79.9852 55.2508 78.8987 56.1019C77.8122 56.953 76.9799 58.0859 76.4925 59.3773C76.3958 59.6341 76.3547 59.9085 76.3717 60.1824C76.3887 60.4563 76.4635 60.7234 76.5912 60.9663L91.51 89.3047V123.848C91.5099 124.103 91.56 124.356 91.6575 124.591C91.755 124.827 91.898 125.041 92.0783 125.222C92.2586 125.402 92.4727 125.545 92.7083 125.642C92.9439 125.74 93.1965 125.79 93.4514 125.79H140.058C140.313 125.79 140.566 125.74 140.801 125.642C141.037 125.545 141.251 125.402 141.431 125.222C141.612 125.041 141.755 124.827 141.852 124.591C141.95 124.356 142 124.103 142 123.848V47.6576C142.016 45.8521 141.366 44.1042 140.174 42.7481C138.982 41.3921 137.332 40.5231 135.54 40.3075ZM138.117 121.906H95.3928V88.8243C95.3932 88.5089 95.3171 88.1982 95.171 87.9188L80.4862 60.0353C80.8163 59.5322 81.2653 59.1183 81.7934 58.8301C82.3216 58.5418 82.9126 58.3883 83.5142 58.3829C84.1158 58.3775 84.7094 58.5205 85.2426 58.7992C85.7758 59.078 86.2321 59.4838 86.5711 59.9809L96.7274 74.8797C96.9609 75.224 97.2988 75.4842 97.6912 75.6221C98.0836 75.76 98.51 75.7682 98.9074 75.6456C99.3049 75.5229 99.6525 75.276 99.8991 74.9409C100.146 74.6059 100.278 74.2006 100.277 73.7845V36.9454C100.255 36.1042 100.542 35.284 101.085 34.6416C101.629 33.9991 102.39 33.5793 103.223 33.4623C103.678 33.4164 104.138 33.4665 104.573 33.6093C105.008 33.7522 105.408 33.9847 105.748 34.2918C106.087 34.5988 106.359 34.9737 106.544 35.3922C106.73 35.8106 106.826 36.2634 106.826 36.7212V59.5793C106.826 60.0943 107.031 60.5882 107.395 60.9523C107.759 61.3165 108.253 61.5211 108.767 61.5211C109.282 61.5211 109.776 61.3165 110.14 60.9523C110.504 60.5882 110.709 60.0943 110.709 59.5793V31.3829C110.686 30.5418 110.974 29.7218 111.517 29.0795C112.06 28.4372 112.821 28.0176 113.654 27.9009C114.11 27.8548 114.569 27.9048 115.004 28.0475C115.439 28.1903 115.839 28.4226 116.179 28.7297C116.518 29.0367 116.789 29.4115 116.975 29.8299C117.161 30.2483 117.256 30.701 117.256 31.1587V64.78C117.256 65.295 117.461 65.7889 117.825 66.1531C118.189 66.5173 118.683 66.7219 119.198 66.7219C119.713 66.7219 120.206 66.5173 120.57 66.1531C120.935 65.7889 121.139 65.295 121.139 64.78V40.7757C121.139 40.318 121.235 39.8653 121.421 39.4469C121.607 39.0285 121.878 38.6537 122.218 38.3467C122.557 38.0397 122.957 37.8072 123.392 37.6642C123.827 37.5213 124.287 37.4711 124.742 37.5168C125.576 37.6335 126.337 38.0532 126.88 38.6958C127.424 39.3383 127.712 40.1585 127.689 40.9999V67.2722C127.689 67.7872 127.893 68.2811 128.257 68.6453C128.622 69.0095 129.115 69.2141 129.63 69.2141C130.145 69.2141 130.639 69.0095 131.003 68.6453C131.367 68.2811 131.572 67.7872 131.572 67.2722V47.4334C131.572 46.9756 131.668 46.5228 131.853 46.1044C132.039 45.6859 132.311 45.3111 132.65 45.004C132.99 44.6969 133.39 44.4644 133.825 44.3216C134.259 44.1787 134.719 44.1286 135.175 44.1745C136.008 44.2915 136.769 44.7113 137.312 45.3538C137.855 45.9963 138.143 46.8164 138.12 47.6576L138.117 121.906Z" fill="#628DD9"/>
</svg>
