<svg width="159" height="142" viewBox="0 0 159 142" fill="none" xmlns="http://www.w3.org/2000/svg">
<circle cx="36" cy="82" r="35.5" fill="#91C449" fill-opacity="0.25" stroke="#E3F0D1"/>
<path d="M158.426 11.1393L147.857 0.569155C147.676 0.388725 147.462 0.245588 147.227 0.147928C146.991 0.0502674 146.739 0 146.484 0C146.229 0 145.976 0.0502674 145.741 0.147928C145.505 0.245588 145.291 0.388725 145.111 0.569155L89.4522 56.2309L89.3413 56.12C88.7491 55.5273 88.046 55.0572 87.272 54.7364C86.4981 54.4157 85.6685 54.2506 84.8307 54.2506C83.9929 54.2506 83.1634 54.4157 82.3894 54.7364C81.6155 55.0572 80.9123 55.5273 80.3202 56.12L77.3482 59.0831C75.1948 56.9198 72.3397 55.5965 69.2971 55.3514C66.2546 55.1063 63.2245 55.9556 60.7525 57.7463L57.4733 60.0028L49.0357 65.8093L17.8411 87.2723C17.6064 87.4337 17.4101 87.6448 17.2661 87.8906C17.1221 88.1364 17.034 88.4109 17.0081 88.6946C16.9821 88.9783 17.019 89.2642 17.116 89.532C17.213 89.7999 17.3678 90.0431 17.5693 90.2443L29.3483 102.024C30.6579 103.322 32.3699 104.136 34.2033 104.332C36.0366 104.528 37.8821 104.095 39.4366 103.103L40.4483 102.452L39.6263 105.492C39.1887 107.122 39.1874 108.838 39.6226 110.468C40.0577 112.099 40.9141 113.586 42.1057 114.781L68.7542 141.431C68.9345 141.611 69.1486 141.755 69.3842 141.852C69.6199 141.95 69.8725 142 70.1276 142C70.1852 142 70.2451 142 70.305 141.992C70.5885 141.966 70.8627 141.878 71.1083 141.734C71.3538 141.59 71.5648 141.394 71.7261 141.159L92.0569 111.603L98.9925 101.523V101.517L101.222 98.2773C103.023 95.8053 103.881 92.771 103.641 89.7219C103.401 86.6729 102.08 83.8101 99.9144 81.65L102.881 78.6835C103.473 78.0914 103.944 77.3882 104.264 76.6142C104.585 75.8402 104.75 75.0106 104.75 74.1728C104.75 73.335 104.585 72.5054 104.264 71.7315C103.944 70.9575 103.473 70.2543 102.881 69.6621L102.77 69.5512L158.43 13.8905C158.611 13.71 158.754 13.4955 158.852 13.2593C158.95 13.0231 159 12.7699 159 12.5142C159 12.2585 158.949 12.0055 158.85 11.7695C158.752 11.5335 158.608 11.3194 158.426 11.1393ZM90.1822 107.483L51.5162 68.8157L58.3431 64.1219L94.8758 100.656L90.1822 107.483ZM69.8502 137.036L61.4082 128.594L69.8669 117.372C70.177 116.96 70.3107 116.442 70.2388 115.931C70.1668 115.421 69.8949 114.96 69.483 114.649C69.0711 114.339 68.5529 114.206 68.0424 114.278C67.5318 114.35 67.0708 114.621 66.7607 115.033L58.6304 125.82L53.8014 120.991L59.4102 113.639C59.7227 113.229 59.8597 112.713 59.7912 112.202C59.7226 111.692 59.4541 111.229 59.0447 110.917C58.6353 110.605 58.1186 110.467 57.6081 110.536C57.0977 110.605 56.6354 110.873 56.323 111.283L51.0314 118.219L44.8446 112.034C44.1364 111.321 43.6278 110.434 43.3699 109.463C43.1119 108.492 43.1136 107.47 43.3748 106.5L45.5125 98.5902C45.6149 98.2113 45.6002 97.8104 45.4703 97.44C45.3404 97.0697 45.1014 96.7474 44.7847 96.5156C44.4667 96.2868 44.0875 96.1584 43.6959 96.1467C43.3044 96.135 42.9182 96.2407 42.5871 96.4502L37.3344 99.8438C36.5271 100.36 35.5681 100.586 34.6152 100.484C33.6624 100.382 32.7727 99.9588 32.0928 99.2835L21.9645 89.1538L48.2636 71.0533L87.9446 110.736L69.8502 137.036ZM98.0529 96.0419L97.1178 97.4031L61.5956 61.8799L62.9934 60.918C64.7234 59.6576 66.8474 59.0584 68.981 59.2287C71.1146 59.399 73.1167 60.3277 74.6248 61.8466L97.151 84.3735C98.6734 85.8883 99.6017 87.8991 99.7672 90.0404C99.9327 92.1816 99.3244 94.3112 98.0529 96.0419ZM100.135 75.9356L97.1699 78.9021L80.0961 61.8277L83.0624 58.8624C83.531 58.3951 84.1657 58.1326 84.8274 58.1326C85.4891 58.1326 86.1238 58.3951 86.5924 58.8624L100.135 72.4056C100.602 72.8741 100.865 73.5089 100.865 74.1706C100.865 74.8324 100.602 75.4671 100.135 75.9356ZM100.024 66.801L92.1989 58.9755L146.484 4.68715L154.309 12.5116L100.024 66.801Z" fill="#628DD9"/>
</svg>
