<svg width="164" height="142" viewBox="0 0 164 142" fill="none" xmlns="http://www.w3.org/2000/svg">
<circle cx="36" cy="36" r="35.5" fill="#91C449" fill-opacity="0.25" stroke="#E3F0D1"/>
<path d="M122.436 87.5563L95.2187 69.7974V26.625C95.2187 26.0365 94.985 25.4722 94.5689 25.0561C94.1528 24.64 93.5884 24.4062 93 24.4062C92.4115 24.4062 91.8472 24.64 91.4311 25.0561C91.015 25.4722 90.7812 26.0365 90.7812 26.625V72.2025L120.009 91.2838C120.253 91.4432 120.526 91.5529 120.813 91.6067C121.099 91.6605 121.394 91.6573 121.679 91.5974C121.964 91.5374 122.235 91.4219 122.476 91.2573C122.716 91.0927 122.922 90.8823 123.082 90.6381C123.241 90.394 123.351 90.1208 123.405 89.8342C123.459 89.5477 123.455 89.2533 123.395 88.9679C123.335 88.6826 123.22 88.4118 123.055 88.1711C122.891 87.9305 122.68 87.7245 122.436 87.5652V87.5563Z" fill="#628DD9"/>
<path d="M93 0C78.9575 0 65.2304 4.16408 53.5545 11.9657C41.8787 19.7672 32.7784 30.8559 27.4046 43.8295C22.0308 56.803 20.6247 71.0787 23.3643 84.8514C26.1038 98.624 32.8659 111.275 42.7954 121.205C52.725 131.134 65.376 137.896 79.1486 140.636C92.9213 143.375 107.197 141.969 120.171 136.595C133.144 131.222 144.233 122.121 152.034 110.445C159.836 98.7696 164 85.0425 164 71C164 52.1696 156.52 34.1105 143.205 20.7954C129.89 7.48034 111.83 0 93 0ZM141.575 116.438L137.359 112.222C136.941 111.807 136.376 111.575 135.787 111.578C135.198 111.58 134.634 111.816 134.219 112.234C133.804 112.652 133.572 113.218 133.574 113.807C133.577 114.396 133.813 114.96 134.231 115.375L138.447 119.591C126.694 130.618 111.327 136.987 95.2188 137.507V130.906C95.2188 130.318 94.985 129.753 94.5689 129.337C94.1528 128.921 93.5885 128.687 93 128.687C92.4116 128.687 91.8472 128.921 91.4311 129.337C91.015 129.753 90.7813 130.318 90.7813 130.906V137.507C74.6746 136.982 59.3107 130.608 47.5622 119.577L51.7779 115.362C52.193 114.944 52.4251 114.378 52.423 113.788C52.4209 113.199 52.1849 112.635 51.7668 112.22C51.3487 111.805 50.7828 111.573 50.1936 111.575C49.6044 111.577 49.0402 111.813 48.625 112.231L44.4094 116.447C33.3817 104.694 27.0125 89.3267 26.493 73.2187H33.0938C33.6822 73.2187 34.2466 72.985 34.6627 72.5689C35.0788 72.1528 35.3125 71.5884 35.3125 71C35.3125 70.4115 35.0788 69.8472 34.6627 69.4311C34.2466 69.015 33.6822 68.7812 33.0938 68.7812H26.493C27.0183 52.6746 33.3921 37.3107 44.4227 25.5622L48.6383 29.7778C48.8454 29.9834 49.0908 30.1462 49.3608 30.2569C49.6307 30.3676 49.9198 30.424 50.2115 30.423C50.5032 30.4219 50.7919 30.3635 51.0611 30.2509C51.3302 30.1383 51.5745 29.9738 51.7801 29.7667C51.9857 29.5597 52.1484 29.3142 52.2591 29.0443C52.3698 28.7744 52.4262 28.4853 52.4252 28.1936C52.4242 27.9018 52.3657 27.6132 52.2531 27.344C52.1405 27.0749 51.976 26.8306 51.769 26.625L47.5534 22.4094C59.3061 11.3817 74.6733 5.0125 90.7813 4.49297V11.0937C90.7813 11.6822 91.015 12.2465 91.4311 12.6626C91.8472 13.0787 92.4116 13.3125 93 13.3125C93.5885 13.3125 94.1528 13.0787 94.5689 12.6626C94.985 12.2465 95.2188 11.6822 95.2188 11.0937V4.49297C111.325 5.01827 126.689 11.3921 138.438 22.4227L134.222 26.6383C133.807 27.0564 133.575 27.6223 133.577 28.2115C133.579 28.8007 133.815 29.3649 134.233 29.7801C134.651 30.1952 135.217 30.4273 135.806 30.4252C136.396 30.4231 136.96 30.1871 137.375 29.769L141.591 25.5533C152.618 37.3061 158.988 52.6733 159.507 68.7812H152.906C152.318 68.7812 151.753 69.015 151.337 69.4311C150.921 69.8472 150.688 70.4115 150.688 71C150.688 71.5884 150.921 72.1528 151.337 72.5689C151.753 72.985 152.318 73.2187 152.906 73.2187H159.507C158.981 89.3257 152.606 104.69 141.575 116.438Z" fill="#628DD9"/>
</svg>
