<svg width="142" height="142" viewBox="0 0 142 142" fill="none" xmlns="http://www.w3.org/2000/svg">
<circle cx="46" cy="57" r="35.5" fill="#91C449" fill-opacity="0.25" stroke="#E3F0D1"/>
<path d="M35.6498 67.2485C31.599 67.2529 27.7155 68.8638 24.8512 71.7279C21.9869 74.5919 20.3757 78.475 20.3713 82.5254V86.8712C20.3713 87.4273 20.5922 87.9606 20.9855 88.3539C21.3788 88.7471 21.9122 88.968 22.4684 88.968C23.0245 88.968 23.5579 88.7471 23.9512 88.3539C24.3445 87.9606 24.5654 87.4273 24.5654 86.8712V82.5254C24.5686 79.5869 25.7374 76.7696 27.8154 74.6918C29.8935 72.614 32.711 71.4453 35.6498 71.4421C36.206 71.4421 36.7394 71.2212 37.1326 70.828C37.5259 70.4347 37.7468 69.9014 37.7468 69.3453C37.7468 68.7892 37.5259 68.2558 37.1326 67.8626C36.7394 67.4694 36.206 67.2485 35.6498 67.2485Z" fill="#628DD9"/>
<path d="M129.118 127.011H120.915L104.298 26.7449C103.665 22.9199 102.16 19.292 99.8991 16.1425C97.6381 12.993 94.6819 10.4066 91.2599 8.58393L80.5002 2.90571C76.6804 0.886308 72.4034 -0.111263 68.0842 0.00984939C63.7651 0.130961 59.5506 1.36664 55.85 3.59693C52.1494 5.82721 49.0884 8.97632 46.9641 12.7385C44.8399 16.5007 43.7245 20.7482 43.7264 25.0686V44.3355H42.2285C41.6724 44.3355 41.139 44.5564 40.7457 44.9496C40.3524 45.3429 40.1315 45.8762 40.1315 46.4323V56.4612H35.6498C28.7398 56.4691 22.1151 59.2173 17.229 64.1029C12.3429 68.9885 9.59443 75.6125 9.5865 82.5218V88.9129C6.89848 89.4059 4.46795 90.8244 2.7168 92.9223C0.965649 95.0202 0.00443363 97.665 0 100.398V113.644C0.00443363 116.376 0.965649 119.021 2.7168 121.119C4.46795 123.217 6.89848 124.635 9.5865 125.128V130.246C9.58634 130.521 9.64048 130.794 9.74581 131.048C9.85114 131.303 10.0056 131.534 10.2004 131.729C10.3951 131.923 10.6264 132.078 10.8809 132.183C11.1354 132.288 11.4081 132.343 11.6835 132.342H37.8391C38.8352 134.607 40.338 136.613 42.2317 138.206C44.1253 139.799 46.3594 140.935 48.7617 141.528C51.1639 142.122 53.6704 142.156 56.0878 141.628C58.5053 141.1 60.7693 140.024 62.7053 138.483C64.6414 136.942 66.1979 134.978 67.255 132.74C68.312 130.503 68.8413 128.053 68.8022 125.58C68.7631 123.106 68.1565 120.674 67.0292 118.471C65.902 116.269 64.2841 114.354 62.3003 112.875V58.558C62.3003 58.0019 62.0793 57.4685 61.686 57.0753C61.2928 56.6821 60.7594 56.4612 60.2032 56.4612H58.7053V46.4323C58.7053 45.8762 58.4844 45.3429 58.0911 44.9496C57.6978 44.5564 57.1644 44.3355 56.6083 44.3355H55.1104V25.0686C55.1123 22.7114 55.7229 20.3946 56.883 18.3425C58.0432 16.2905 59.7136 14.5727 61.7325 13.3555C63.7513 12.1384 66.0503 11.463 68.4068 11.395C70.7633 11.3269 73.0975 11.8683 75.1833 12.9669L85.9454 18.6583C87.8142 19.6525 89.4278 21.0652 90.6601 22.7863C91.8924 24.5073 92.71 26.49 93.049 28.5793L109.377 127.011H101.458C98.0422 127.014 94.7679 128.373 92.3529 130.787C89.9379 133.202 88.5795 136.476 88.5756 139.891C88.5756 140.447 88.7966 140.98 89.1899 141.374C89.5831 141.767 90.1165 141.988 90.6727 141.988H139.903C140.459 141.988 140.993 141.767 141.386 141.374C141.779 140.98 142 140.447 142 139.891C141.996 136.476 140.638 133.202 138.223 130.787C135.808 128.373 132.533 127.014 129.118 127.011ZM4.19409 113.644V100.398C4.19681 98.7779 4.72343 97.2026 5.69533 95.9068C6.66722 94.6111 8.03223 93.6645 9.5865 93.2084V120.84C8.03095 120.384 6.66498 119.436 5.69294 118.139C4.7209 116.841 4.19506 115.264 4.19409 113.644ZM64.6118 125.812C64.6118 128.182 63.909 130.499 62.5923 132.469C61.2756 134.439 59.404 135.975 57.2144 136.882C55.0248 137.789 52.6154 138.026 50.2909 137.564C47.9664 137.102 45.8312 135.96 44.1553 134.285C42.4795 132.609 41.3382 130.474 40.8758 128.15C40.4134 125.826 40.6507 123.416 41.5577 121.227C42.4647 119.038 44.0006 117.166 45.9712 115.85C47.9418 114.533 50.2586 113.83 52.6287 113.83C55.8057 113.834 58.8517 115.097 61.0982 117.344C63.3447 119.59 64.6083 122.636 64.6118 125.812ZM52.6287 109.637C50.302 109.619 47.9993 110.107 45.88 111.067C43.7606 112.027 41.8753 113.437 40.3544 115.197C38.8336 116.958 37.7136 119.028 37.0719 121.264C36.4303 123.501 36.2824 125.85 36.6384 128.149H13.7806V82.5218C13.7873 76.7243 16.0935 71.1663 20.1933 67.0668C24.2931 62.9674 29.8518 60.6615 35.6498 60.6548H58.1062V110.61C56.3509 109.969 54.4973 109.639 52.6287 109.636V109.637ZM44.3256 56.4612V48.5291H54.5112V56.4612H44.3256ZM97.1927 27.9011C96.7481 25.1723 95.6784 22.5832 94.0674 20.3361C92.4564 18.089 90.3476 16.2448 87.9058 14.9475L77.1437 9.25611C74.4188 7.81731 71.3682 7.10717 68.2879 7.19459C65.2076 7.282 62.2022 8.164 59.5632 9.75502C56.9243 11.346 54.7414 13.5921 53.2263 16.2752C51.7113 18.9583 50.9156 21.9874 50.9163 25.0686V44.3355H47.9205V25.0686C47.9202 21.4716 48.8497 17.9357 50.6188 14.8038C52.388 11.6719 54.9368 9.0504 58.0178 7.19373C61.0989 5.33707 64.6076 4.30825 68.2035 4.20712C71.7994 4.10598 75.3604 4.93595 78.541 6.61651L89.2994 12.2947C92.1503 13.8135 94.6129 15.9686 96.4961 18.5928C98.3793 21.217 99.6326 24.2398 100.159 27.4266L116.663 127.013H113.629L97.1927 27.9011ZM93.0262 137.794C93.4964 135.914 94.5813 134.244 96.1088 133.05C97.6362 131.856 99.5187 131.206 101.458 131.204H129.118C131.057 131.206 132.939 131.856 134.467 133.05C135.994 134.244 137.079 135.914 137.549 137.794H93.0262Z" fill="#628DD9"/>
</svg>
