<svg width="271" height="271" viewBox="0 0 271 271" fill="none" xmlns="http://www.w3.org/2000/svg">
<g clip-path="url(#clip0)">
<path d="M135.053 270.592C209.91 270.592 270.593 209.909 270.593 135.052C270.593 60.1949 209.91 -0.488647 135.053 -0.488647C60.1957 -0.488647 -0.487793 60.1949 -0.487793 135.052C-0.487793 209.909 60.1957 270.592 135.053 270.592Z" fill="white" stroke="url(#paint0_diamond)"/>
<path d="M262.373 90.0192H179.167C182.781 118.867 182.803 150.654 179.237 179.538H262.551C267.415 165.603 270.088 150.639 270.088 135.047C270.091 119.251 267.355 104.103 262.373 90.0192Z" fill="#2B479D"/>
<path d="M179.167 90.0193H262.372C262.359 89.9765 262.346 89.9406 262.329 89.9018C245.047 41.1685 200.588 5.31378 147.171 0.554321C167.845 11.8853 173.883 47.7851 179.167 90.0193Z" fill="#F6F6F6"/>
<path d="M147.176 269.532C200.688 264.764 245.209 228.785 262.425 179.921C262.47 179.791 262.508 179.663 262.555 179.538H179.239C173.996 222.001 167.932 258.153 147.176 269.532Z" fill="#E63026"/>
<path d="M0 135.047C0 150.641 2.67823 165.603 7.53747 179.537H186.189C189.758 150.651 189.732 118.867 186.122 90.0186H7.71709C2.73582 104.103 0 119.251 0 135.047Z" fill="#3757A6"/>
<path d="M7.75907 89.9023C7.74653 89.9405 7.73341 89.977 7.71631 90.0198H186.122C180.834 47.7851 167.844 11.8859 147.174 0.554845C143.175 0.200751 139.133 0.000610358 135.043 0.000610358C76.296 4.0158e-05 26.3379 37.5198 7.75907 89.9023Z" fill="white"/>
<path d="M186.189 179.537H7.5376C7.58264 179.663 7.62484 179.791 7.6676 179.921C26.1723 232.438 76.2022 270.09 135.043 270.09C139.133 270.09 143.176 269.889 147.174 269.531C167.932 258.154 180.945 222.001 186.189 179.537Z" fill="#E73B36"/>
</g>
<rect x="0.5" y="0.5" width="269.092" height="269.092" stroke="white"/>
<defs>
<radialGradient id="paint0_diamond" cx="0" cy="0" r="1" gradientUnits="userSpaceOnUse" gradientTransform="translate(135.053 135.052) rotate(90) scale(135.04)">
<stop stop-color="#3757A6"/>
<stop offset="1" stop-color="#3757A6" stop-opacity="0"/>
</radialGradient>
<clipPath id="clip0">
</clipPath>
</defs>
</svg>
